<svg width="28" height="24" viewBox="0 0 28 24" fill="none" xmlns="http://www.w3.org/2000/svg">
<path d="M13.0007 6.00045C13.0007 3.25045 15.3132 0.962955 18.0632 1.00045C19.0262 1.01157 19.9656 1.3006 20.7683 1.8328C21.571 2.365 22.203 3.11771 22.5882 4.00045H27.0007L22.9632 8.03795C22.7026 12.0937 20.9073 15.8979 17.9422 18.6773C14.9771 21.4566 11.0648 23.0025 7.00068 23.0005C3.00068 23.0005 2.00068 21.5005 2.00068 21.5005C2.00068 21.5005 6.00068 20.0005 8.00068 17.0005C8.00068 17.0005 0.000675142 13.0005 2.00068 2.00045C2.00068 2.00045 7.00068 7.00045 13.0007 8.00045V6.00045Z" stroke="#858584" stroke-width="2" stroke-linecap="round" stroke-linejoin="round"/>
</svg>
